<svg width="24" height="24" viewBox="0 0 24 24" fill="none" xmlns="http://www.w3.org/2000/svg">
<path opacity="0.21" fill-rule="evenodd" clip-rule="evenodd" d="M24 12C24 18.6274 18.6274 24 12 24C5.37258 24 0 18.6274 0 12C0 5.37258 5.37258 0 12 0C18.6274 0 24 5.37258 24 12Z" fill="#8280FF"/>
<path opacity="0.587821" fill-rule="evenodd" clip-rule="evenodd" d="M8.26685 9.33328C8.26685 10.5115 9.22197 11.4666 10.4002 11.4666C11.5784 11.4666 12.5335 10.5115 12.5335 9.33328C12.5335 8.15508 11.5784 7.19995 10.4002 7.19995C9.22197 7.19995 8.26685 8.15508 8.26685 9.33328ZM13.6002 11.4667C13.6002 12.3504 14.3166 13.0667 15.2002 13.0667C16.0839 13.0667 16.8002 12.3504 16.8002 11.4667C16.8002 10.583 16.0839 9.8667 15.2002 9.8667C14.3166 9.8667 13.6002 10.583 13.6002 11.4667Z" fill="#8280FF"/>
<path fill-rule="evenodd" clip-rule="evenodd" d="M10.3912 12.5333C7.87312 12.5333 5.80717 13.8275 5.60045 16.3729C5.58918 16.5116 5.85434 16.8 5.9881 16.8H14.7983C15.199 16.8 15.2052 16.4776 15.199 16.3733C15.0427 13.7564 12.9447 12.5333 10.3912 12.5333ZM18.1099 16.8001H16.0534V16.8C16.0534 15.5996 15.6568 14.4917 14.9874 13.6004C16.8042 13.6203 18.2876 14.5389 18.3993 16.4801C18.4037 16.5583 18.3993 16.8001 18.1099 16.8001Z" fill="#8280FF"/>
</svg>
